<svg width="1440" height="150" viewBox="0 0 1440 150" fill="none" xmlns="http://www.w3.org/2000/svg">
<rect width="1440" height="150" fill="url(#paint0_linear_212_486)"/>
<g clip-path="url(#clip0_212_486)">
<path d="M582.649 79.3174C582.649 79.3174 570.079 80.8317 566.512 93.8945C566.512 93.8945 566.571 87.1594 566.512 78.2053C566.388 59.425 571.508 43.7064 590.791 37.445C590.791 37.445 611.57 30.3805 626.221 49.3868C626.221 49.3868 626.406 56.948 617.688 69.9432C617.688 69.9432 617.207 58.8989 606.556 54.8796C600.918 52.7524 593.56 52.9989 587.442 59.2079C578.888 67.8939 582.649 79.3174 582.649 79.3174Z" fill="#DEEFF1"/>
<path d="M566.643 108.839C566.643 108.839 567.76 95.3769 599.432 96.1429C623.189 96.7175 630.415 77.8363 631.44 74.7962C635.229 63.5541 627.604 50.7964 627.653 51.2624C628.121 55.7835 621.455 69.8576 616.684 74.154C612.233 78.1619 607.831 80.0439 590.898 80.3886C590.898 80.3886 564.365 78.5449 566.643 108.839Z" fill="#DEEFF1"/>
</g>
<path d="M665.241 60.1844C669.424 60.6717 672.875 63.5547 672.875 68.8742C672.875 74.1937 669.302 77.0768 665.241 77.5641C663.82 77.7265 662.724 77.7671 661.059 77.7671H657.323V88H650.948V59.9814H661.059C662.724 59.9814 663.82 60.022 665.241 60.1844ZM663.048 72.6913C664.957 72.4476 666.216 71.27 666.216 68.8742C666.216 66.4784 664.957 65.3008 663.048 65.0572C662.48 64.976 661.708 64.976 660.815 64.976H657.323V72.7725H660.815C661.708 72.7725 662.48 72.7725 663.048 72.6913ZM685.659 65.7881C692.806 65.7881 697.069 70.4173 697.069 77.158C697.069 83.8987 692.806 88.5685 685.659 88.5685C678.471 88.5685 674.248 83.8987 674.248 77.158C674.248 70.4173 678.471 65.7881 685.659 65.7881ZM685.659 84.183C688.664 84.183 690.491 81.6653 690.491 77.158C690.491 72.6507 688.664 70.1736 685.659 70.1736C682.613 70.1736 680.786 72.6507 680.786 77.158C680.786 81.6653 682.613 84.183 685.659 84.183ZM706.705 58.1541V80.6096C706.705 81.5435 706.705 82.0308 706.745 82.5993C706.867 83.5739 707.314 83.8987 709.222 83.8175V88.1624C708.004 88.2842 706.826 88.3655 705.405 88.3655C702.36 88.3655 700.573 87.1879 700.41 84.3454C700.329 83.2896 700.329 82.2338 700.329 80.7314V58.1541H706.705ZM715.476 57.9916C717.507 57.9916 718.887 59.2504 718.887 61.1996C718.887 63.1893 717.507 64.4481 715.476 64.4481C713.446 64.4481 712.106 63.1893 712.106 61.1996C712.106 59.2504 713.446 57.9916 715.476 57.9916ZM718.684 88H712.309V66.3566H718.684V88ZM746.921 64.9354H737.581V88H731.247V64.9354H721.907V59.9814H746.921V64.9354ZM762.043 59.4129C770.692 59.4129 776.093 65.0978 776.093 73.9907C776.093 82.8429 770.692 88.5685 762.043 88.5685C753.353 88.5685 747.952 82.8429 747.952 73.9907C747.952 65.0978 753.353 59.4129 762.043 59.4129ZM762.043 83.8581C766.672 83.8581 769.514 80.2441 769.514 73.9907C769.514 67.6966 766.672 64.1232 762.043 64.1232C757.373 64.1232 754.53 67.6966 754.53 73.9907C754.53 80.2441 757.373 83.8581 762.043 83.8581ZM789.468 65.7881C795.518 65.7881 799.254 69.5239 799.579 74.3561H793.366C792.92 71.3918 791.417 70.1736 789.306 70.1736C786.626 70.1736 784.92 72.3664 784.92 76.955C784.92 81.9902 786.666 84.183 789.306 84.183C791.255 84.183 792.798 82.8429 793.285 80.3253H799.579C798.726 85.7666 794.584 88.5685 788.94 88.5685C782.93 88.5685 778.382 84.7109 778.382 77.361C778.382 69.93 783.336 65.7881 789.468 65.7881ZM823.344 76.7925C823.344 77.361 823.303 78.0514 823.222 78.8229H808.035C808.401 82.9648 810.187 84.183 812.583 84.183C814.816 84.183 816.319 82.9648 816.684 80.9344H822.978C821.801 85.9291 817.74 88.5685 812.461 88.5685C806.411 88.5685 801.66 84.8733 801.66 77.2392C801.66 70.7421 806.005 65.7881 812.867 65.7881C819.77 65.7881 823.344 71.0264 823.344 76.7925ZM812.583 70.1736C810.309 70.1736 808.725 71.5949 808.198 74.8028H816.725C816.36 71.7573 814.938 70.1736 812.583 70.1736ZM839.501 88L839.054 84.8327L838.08 87.1473C836.537 88.1218 834.709 88.5685 832.72 88.5685C829.065 88.5685 825.776 86.3351 825.776 82.2338C825.776 77.5235 829.958 74.7622 837.592 74.7622H838.973V74.3967C838.973 73.8283 838.973 73.2598 838.892 72.5288C838.77 71.2294 837.795 70.1736 835.887 70.1736C833.897 70.1736 832.801 71.3918 832.638 73.544H826.547C826.669 68.59 830.852 65.7881 836.131 65.7881C842.546 65.7881 844.861 68.59 845.186 72.4476C845.267 73.4628 845.308 74.681 845.308 75.9398V82.5181C845.308 84.1424 845.389 85.6042 845.714 88H839.501ZM835.237 84.183C837.146 84.183 838.973 82.8023 838.973 80.1223V78.5386C835.034 78.2138 832.314 79.1883 832.314 81.706C832.314 83.3302 833.491 84.183 835.237 84.183ZM871.022 71.7573C871.184 72.8537 871.225 74.0313 871.225 75.7774V88H864.849V76.7519C864.849 75.9398 864.849 74.8434 864.768 73.747C864.606 71.5543 863.387 70.1736 860.91 70.1736C858.393 70.1736 856.525 72.4476 856.525 77.9701V88H850.15V66.3566H856.525V69.7676L858.312 67.1687C859.773 66.1942 861.317 65.7881 863.347 65.7881C867.895 65.7881 870.534 67.9809 871.022 71.7573Z" fill="#DEEFF1"/>
<path d="M656.123 95.399C657.787 95.623 658.923 96.615 658.923 98.487C658.923 100.375 657.675 101.431 656.123 101.639C655.627 101.703 655.195 101.703 654.635 101.703H652.571V106.375H651.579V95.335H654.635C655.195 95.335 655.627 95.335 656.123 95.399ZM656.043 100.775C657.051 100.615 657.851 99.943 657.851 98.487C657.851 97.079 657.051 96.423 656.043 96.263C655.675 96.199 655.243 96.183 654.715 96.183H652.571V100.855H654.715C655.243 100.855 655.675 100.839 656.043 100.775ZM663.376 97.687C666.064 97.687 667.488 99.655 667.488 102.151C667.488 104.631 666.064 106.599 663.376 106.599C660.688 106.599 659.264 104.631 659.264 102.151C659.264 99.655 660.688 97.687 663.376 97.687ZM663.376 105.815C665.136 105.815 666.4 104.455 666.4 102.151C666.4 99.847 665.136 98.487 663.376 98.487C661.616 98.487 660.352 99.847 660.352 102.151C660.352 104.455 661.616 105.815 663.376 105.815ZM669.748 94.615V104.135C669.748 104.503 669.748 104.791 669.764 105.047C669.796 105.591 670.036 105.735 670.756 105.655V106.391C670.5 106.439 670.228 106.439 669.972 106.439C669.316 106.439 668.82 106.215 668.772 105.303C668.756 105.015 668.756 104.679 668.756 104.167V94.615H669.748ZM678.592 97.911L675.2 106.823C674.336 109.063 673.52 109.735 672.32 109.735C672.032 109.735 671.856 109.735 671.664 109.687V108.871C671.872 108.903 672.032 108.903 672.208 108.903C672.976 108.903 673.552 108.503 674.096 107.143L674.272 106.695L670.928 97.911H672.048L674.784 105.639L677.504 97.911H678.592ZM680.835 98.743V104.055C680.835 104.407 680.835 104.583 680.851 104.807C680.915 105.623 681.267 105.831 682.403 105.687V106.423C682.067 106.487 681.715 106.503 681.379 106.503C680.435 106.503 679.939 106.087 679.859 105.159C679.843 104.871 679.843 104.551 679.843 104.071V98.743H678.755V97.975H679.843V96.103H680.835V97.975H682.451V98.743H680.835ZM690.489 101.911C690.489 102.023 690.489 102.183 690.457 102.439H684.041C684.153 104.935 685.417 105.815 686.793 105.815C687.977 105.815 689.033 105.095 689.337 103.703H690.377C689.977 105.671 688.425 106.599 686.729 106.599C684.617 106.599 682.969 105.127 682.969 102.151C682.969 99.431 684.665 97.687 686.889 97.687C689.257 97.687 690.489 99.575 690.489 101.911ZM686.857 98.487C685.465 98.487 684.185 99.543 684.041 101.655H689.481C689.369 99.479 688.281 98.487 686.857 98.487ZM695.21 97.687C697.162 97.687 698.458 98.887 698.714 100.679H697.674C697.386 99.255 696.538 98.471 695.178 98.471C693.754 98.471 692.362 99.623 692.362 102.071C692.362 104.679 693.674 105.815 695.098 105.815C696.346 105.815 697.306 105.095 697.61 103.735H698.634C698.25 105.607 696.858 106.599 695.034 106.599C692.922 106.599 691.274 105.143 691.274 102.151C691.274 99.351 693.082 97.687 695.21 97.687ZM706.848 100.215C706.88 100.647 706.88 100.951 706.88 101.639V106.375H705.888V101.751C705.888 101.271 705.888 100.903 705.856 100.471C705.744 99.319 705.104 98.487 703.68 98.503C702.272 98.519 701.04 99.527 701.04 102.167V106.375H700.048V94.535H701.04V99.543L701.488 98.631C702.176 97.943 702.928 97.687 703.872 97.687C705.664 97.687 706.688 98.663 706.848 100.215ZM715.637 100.215C715.669 100.647 715.669 100.951 715.669 101.639V106.375H714.677V101.751C714.677 101.271 714.677 100.903 714.645 100.471C714.533 99.319 713.893 98.503 712.469 98.503C711.061 98.503 709.829 99.527 709.829 102.167V106.375H708.837V97.911H709.829V99.543L710.277 98.631C710.965 97.943 711.717 97.687 712.661 97.687C714.453 97.687 715.477 98.663 715.637 100.215ZM718.123 95.415C718.507 95.415 718.795 95.703 718.795 96.087C718.795 96.455 718.507 96.759 718.123 96.759C717.755 96.759 717.451 96.455 717.451 96.087C717.451 95.703 717.755 95.415 718.123 95.415ZM718.619 106.375H717.627V97.911H718.619V106.375ZM723.914 97.687C725.866 97.687 727.162 98.887 727.418 100.679H726.378C726.09 99.255 725.242 98.471 723.882 98.471C722.458 98.471 721.066 99.623 721.066 102.071C721.066 104.679 722.378 105.815 723.802 105.815C725.05 105.815 726.01 105.095 726.314 103.735H727.338C726.954 105.607 725.562 106.599 723.738 106.599C721.626 106.599 719.978 105.143 719.978 102.151C719.978 99.351 721.786 97.687 723.914 97.687ZM735.122 97.687C737.81 97.687 739.234 99.655 739.234 102.151C739.234 104.631 737.81 106.599 735.122 106.599C732.434 106.599 731.01 104.631 731.01 102.151C731.01 99.655 732.434 97.687 735.122 97.687ZM735.122 105.815C736.882 105.815 738.146 104.455 738.146 102.151C738.146 99.847 736.882 98.487 735.122 98.487C733.362 98.487 732.098 99.847 732.098 102.151C732.098 104.455 733.362 105.815 735.122 105.815ZM741.701 96.119C741.669 96.391 741.669 96.711 741.669 96.951V97.975H743.397V98.775H741.669V106.375H740.677V98.775H739.765V97.975H740.677V97.031C740.677 96.743 740.677 96.391 740.709 96.087C740.837 94.919 741.621 94.311 742.661 94.311C742.997 94.311 743.269 94.343 743.557 94.391V95.223C742.437 94.999 741.797 95.367 741.701 96.119ZM755.92 96.151H751.872V106.375H750.88V96.151H746.832V95.335H755.92V96.151ZM762.716 97.911V106.375H761.724V104.743L761.26 105.687C760.588 106.343 759.82 106.599 758.892 106.599C757.164 106.599 756.14 105.623 755.948 104.279C755.9 103.847 755.884 103.543 755.884 102.855V97.911H756.876V102.631C756.876 103.031 756.892 103.463 756.94 103.895C757.068 105.015 757.804 105.799 759.116 105.799C760.524 105.799 761.724 104.775 761.724 102.119V97.911H762.716ZM767.826 97.719C768.002 97.719 768.178 97.735 768.322 97.783V98.567C766.85 98.455 765.762 99.367 765.762 101.623V106.375H764.77V97.911H765.762V99.447L766.37 98.359C766.754 97.959 767.282 97.719 767.826 97.719ZM769.79 95.415C770.174 95.415 770.462 95.703 770.462 96.087C770.462 96.455 770.174 96.759 769.79 96.759C769.422 96.759 769.118 96.455 769.118 96.087C769.118 95.703 769.422 95.415 769.79 95.415ZM770.286 106.375H769.294V97.911H770.286V106.375ZM779.133 100.215C779.165 100.647 779.165 100.951 779.165 101.639V106.375H778.173V101.751C778.173 101.271 778.173 100.903 778.141 100.471C778.029 99.319 777.389 98.503 775.965 98.503C774.557 98.503 773.325 99.527 773.325 102.167V106.375H772.333V97.911H773.325V99.543L773.773 98.631C774.461 97.943 775.213 97.687 776.157 97.687C777.949 97.687 778.973 98.663 779.133 100.215ZM787.748 95.111C789.956 95.111 791.108 96.503 791.316 98.295H790.276C790.084 96.791 789.124 95.911 787.668 95.911C786.404 95.911 785.236 96.567 785.236 97.879C785.236 99.223 786.02 99.719 787.908 100.199C790.276 100.807 791.46 101.703 791.46 103.527C791.46 105.351 789.86 106.599 787.748 106.599C785.508 106.599 783.892 105.463 783.652 103.335H784.708C784.98 104.919 786.196 105.799 787.78 105.799C789.236 105.799 790.404 104.967 790.404 103.687C790.404 102.263 789.572 101.655 787.508 101.143C785.412 100.599 784.164 99.863 784.164 98.087C784.164 96.295 785.796 95.111 787.748 95.111ZM794.247 98.743V104.055C794.247 104.407 794.247 104.583 794.263 104.807C794.327 105.623 794.679 105.831 795.815 105.687V106.423C795.479 106.487 795.127 106.503 794.791 106.503C793.847 106.503 793.351 106.087 793.271 105.159C793.255 104.871 793.255 104.551 793.255 104.071V98.743H792.167V97.975H793.255V96.103H794.247V97.975H795.863V98.743H794.247ZM803.898 97.911V106.375H802.906V104.743L802.442 105.687C801.77 106.343 801.002 106.599 800.074 106.599C798.346 106.599 797.322 105.623 797.13 104.279C797.082 103.847 797.066 103.543 797.066 102.855V97.911H798.058V102.631C798.058 103.031 798.074 103.463 798.122 103.895C798.25 105.015 798.986 105.799 800.298 105.799C801.706 105.799 802.906 104.775 802.906 102.119V97.911H803.898ZM812.992 94.615V106.375H812V104.807L811.44 105.735C810.848 106.327 810.016 106.599 809.04 106.599C806.672 106.599 805.264 104.759 805.264 102.247C805.264 99.175 807.152 97.687 809.296 97.687C810.128 97.687 810.944 97.943 811.472 98.455L812 99.367V94.615H812.992ZM809.184 105.815C810.688 105.815 812 104.903 812 102.343V101.703C812 99.303 810.544 98.487 809.296 98.487C807.6 98.487 806.352 99.831 806.352 102.119C806.352 104.151 807.328 105.815 809.184 105.815ZM821.87 101.911C821.87 102.023 821.87 102.183 821.838 102.439H815.422C815.534 104.935 816.798 105.815 818.174 105.815C819.358 105.815 820.414 105.095 820.718 103.703H821.758C821.358 105.671 819.806 106.599 818.11 106.599C815.998 106.599 814.35 105.127 814.35 102.151C814.35 99.431 816.046 97.687 818.27 97.687C820.638 97.687 821.87 99.575 821.87 101.911ZM818.238 98.487C816.846 98.487 815.566 99.543 815.422 101.655H820.862C820.75 99.479 819.662 98.487 818.238 98.487ZM830.143 100.215C830.175 100.647 830.175 100.951 830.175 101.639V106.375H829.183V101.751C829.183 101.271 829.183 100.903 829.151 100.471C829.039 99.319 828.399 98.503 826.975 98.503C825.567 98.503 824.335 99.527 824.335 102.167V106.375H823.343V97.911H824.335V99.543L824.783 98.631C825.471 97.943 826.223 97.687 827.167 97.687C828.959 97.687 829.983 98.663 830.143 100.215ZM833.412 98.743V104.055C833.412 104.407 833.412 104.583 833.428 104.807C833.492 105.623 833.844 105.831 834.98 105.687V106.423C834.644 106.487 834.292 106.503 833.956 106.503C833.012 106.503 832.516 106.087 832.436 105.159C832.42 104.871 832.42 104.551 832.42 104.071V98.743H831.332V97.975H832.42V96.103H833.412V97.975H835.028V98.743H833.412ZM847.753 96.151H843.705V106.375H842.713V96.151H838.665V95.335H847.753V96.151ZM854.348 101.911C854.348 102.023 854.348 102.183 854.316 102.439H847.9C848.012 104.935 849.276 105.815 850.652 105.815C851.836 105.815 852.892 105.095 853.196 103.703H854.236C853.836 105.671 852.284 106.599 850.588 106.599C848.476 106.599 846.828 105.127 846.828 102.151C846.828 99.431 848.524 97.687 850.748 97.687C853.116 97.687 854.348 99.575 854.348 101.911ZM850.716 98.487C849.324 98.487 848.044 99.543 847.9 101.655H853.34C853.228 99.479 852.14 98.487 850.716 98.487ZM860.893 106.375L860.749 104.839L860.333 105.735C859.741 106.327 858.909 106.599 857.981 106.599C856.413 106.599 855.293 105.783 855.293 104.247C855.293 102.311 857.133 101.367 860.189 101.367H860.733V101.063C860.733 100.679 860.733 100.359 860.701 100.023C860.621 99.047 860.029 98.487 858.813 98.487C857.645 98.487 856.813 99.111 856.685 100.423H855.645C855.757 98.759 857.021 97.687 858.813 97.687C860.685 97.687 861.565 98.535 861.693 99.927C861.725 100.295 861.725 100.647 861.725 101.047V104.007C861.725 104.759 861.773 105.367 861.885 106.375H860.893ZM858.285 105.815C859.757 105.815 860.733 104.695 860.733 103.111V102.135C858.349 101.975 856.381 102.535 856.381 104.167C856.381 105.239 857.053 105.815 858.285 105.815ZM874.823 99.959C874.887 100.391 874.903 100.695 874.903 101.383V106.375H873.911V101.831C873.911 101.143 873.895 100.711 873.847 100.279C873.703 99.143 873.079 98.487 871.959 98.487C870.759 98.487 869.831 99.431 869.831 101.943V106.375H868.839V101.831C868.839 101.143 868.823 100.711 868.775 100.279C868.631 99.143 868.007 98.487 866.887 98.487C865.687 98.487 864.759 99.431 864.759 101.943V106.375H863.767V97.911H864.759V99.367L865.239 98.423C865.735 97.911 866.391 97.687 867.191 97.687C868.535 97.687 869.367 98.407 869.655 99.495L870.311 98.423C870.791 97.911 871.463 97.687 872.263 97.687C873.783 97.687 874.631 98.615 874.823 99.959Z" fill="white"/>
<defs>
<linearGradient id="paint0_linear_212_486" x1="0" y1="0" x2="1440" y2="150" gradientUnits="userSpaceOnUse">
<stop offset="0.138534" stop-color="#00679A"/>
<stop offset="1" stop-color="#349999"/>
</linearGradient>
<clipPath id="clip0_212_486">
<rect width="65.9923" height="72.6788" fill="white" transform="translate(566.504 36.1605)"/>
</clipPath>
</defs>
</svg>
